<svg width="287" height="213" viewBox="0 0 287 213" fill="none" xmlns="http://www.w3.org/2000/svg">
<g clip-path="url(#clip0_275_30)">
<path d="M111.096 204.281C167.694 204.281 213.576 158.551 213.576 102.14C213.576 45.7298 167.694 0 111.096 0C54.4972 0 8.61499 45.7298 8.61499 102.14C8.61499 158.551 54.4972 204.281 111.096 204.281Z" fill="#3E457A"/>
<path d="M55.1626 37.8096L53.0405 54.9124C55.6452 59.993 58.404 65.7688 61.0351 71.999L66.0323 46.2097L66.2849 46.4394C62.6313 42.7549 58.788 39.7556 54.9059 37.6035L55.1626 37.8096Z" fill="#FFAA2A"/>
<path d="M52.5822 54.022L54.6379 37.455C50.2708 35.0792 45.8592 33.7812 41.6169 33.8045C41.3962 33.8057 41.1782 33.8133 40.9604 33.8216C41.8125 35.1197 46.7623 42.7719 52.5822 54.022Z" fill="#FFAA2A"/>
<path d="M86.5441 80.7062L86.7729 81.0138C86.0135 78.7121 85.1765 76.4573 84.2618 74.2494L71.3745 103.024L71.2644 102.887C71.5905 104.303 71.891 105.705 72.1658 107.093L86.5441 80.7062Z" fill="#FFAA2A"/>
<path d="M77.8176 61.5851L78.0612 61.8591C74.834 56.3698 70.9658 51.2807 66.5375 46.6982L61.4448 72.9788C63.8841 78.8294 65.9861 84.5403 67.7508 90.1117L77.8176 61.5851Z" fill="#FFAA2A"/>
<path d="M20.7243 60.2388C20.3855 64.7578 20.5056 69.2994 21.0828 73.7944L66.0295 86.3736C64.4011 81.5717 62.6486 77.028 60.9049 72.8616L20.7786 60.6174L20.7243 60.2388Z" fill="#FFAA2A"/>
<path d="M21.8951 79.0031L21.8339 78.624L67.438 90.6971C67.0675 89.51 66.6882 88.3363 66.3 87.176L21.1875 74.5504L21.1289 74.1711C21.3312 75.7553 21.5866 77.366 21.8951 79.0031Z" fill="#FFAA2A"/>
<path d="M83.8488 73.5321L84.0849 73.8247C82.4122 69.8301 80.471 65.9526 78.2744 62.2185L68.0715 91.1309C69.2271 94.8526 70.2262 98.4978 71.0689 102.067L83.8488 73.5321Z" fill="#FFAA2A"/>
<path d="M74.2518 123.11C74.7172 131.366 74.1143 138.992 72.4429 145.904C75.9856 140.849 89.7825 119.759 89.7793 97.8894L74.2518 123.11Z" fill="#FFAA2A"/>
<path d="M27.6111 96.5149C29.4918 100.227 31.62 103.809 33.9812 107.237L33.9384 106.82L73.6735 122.357C73.3696 117.74 72.7881 113.145 71.9322 108.597L27.6111 96.5149Z" fill="#FFAA2A"/>
<path d="M52.1786 54.2379C45.8789 42.0676 40.6153 34.1549 40.5395 34.0415L40.685 33.833C34.2464 34.1687 29.144 37.6173 25.6836 43.2844L52.1786 54.2379Z" fill="#FFAA2A"/>
<path d="M72.3721 108.169C72.454 108.6 72.5385 109.033 72.6155 109.461C73.3612 113.568 73.8819 117.712 74.1755 121.875L89.5558 96.8934L89.7726 97.2006C89.7398 93.3504 89.2177 89.5199 88.2188 85.8005C87.8197 84.3409 87.3874 82.8965 86.922 81.4674L72.3721 108.169Z" fill="#FFAA2A"/>
<path d="M60.5551 72.031C57.9496 65.8734 55.2213 60.1666 52.6462 55.1455L25.5434 43.9405L25.5092 43.5693C22.948 47.8876 21.3208 53.4539 20.7556 59.8865L60.5551 72.031Z" fill="#FFAA2A"/>
<path d="M73.7183 123.09L34.2739 107.667C48.4271 128.227 70.1557 145.867 71.544 146.984C73.604 139.353 74.171 131.248 73.7183 123.09Z" fill="#FFAA2A"/>
<path d="M71.7674 107.824L71.7812 107.799C70.7099 102.293 69.3419 96.8495 67.6831 91.4907L21.9668 79.3878C22.3947 81.6039 22.9213 83.8599 23.5467 86.1559C24.4692 89.4323 25.6898 92.6181 27.193 95.6735L71.7674 107.824Z" fill="#FFAA2A"/>
<path d="M132.227 109.908L119.647 121.732C118.402 127.3 116.831 133.503 114.87 139.974L135.223 123.288L135.27 123.625C134.814 118.465 133.774 113.712 132.161 109.586L132.227 109.908Z" fill="#FFAA2A"/>
<path d="M119.864 120.754L132.049 109.301C130.206 104.695 127.639 100.891 124.357 98.2124C124.186 98.073 124.013 97.9402 123.84 97.8082C123.666 99.3496 122.581 108.39 119.864 120.754Z" fill="#FFAA2A"/>
<path d="M128.945 162.896L128.924 163.278C129.813 161.023 130.611 158.754 131.319 156.472L102.98 170.441L102.982 170.266C102.327 171.564 101.662 172.834 100.985 174.079L128.945 162.896Z" fill="#FFAA2A"/>
<path d="M134.46 142.621L134.473 142.987C135.5 136.708 135.777 130.329 135.299 123.985L114.559 140.989C112.694 147.045 110.658 152.78 108.452 158.193L134.46 142.621Z" fill="#FFAA2A"/>
<path d="M91.3494 105.291C88.1965 108.556 85.3826 112.13 82.9507 115.959L109.518 154.22C111.337 149.486 112.895 144.873 114.218 140.555L91.1488 105.617L91.3494 105.291Z" fill="#FFAA2A"/>
<path d="M80.2429 120.487L80.4384 120.156L107.836 158.445C108.31 157.295 108.769 156.15 109.213 155.01L82.5474 116.608L82.745 116.278C81.887 117.627 81.053 119.03 80.2429 120.487Z" fill="#FFAA2A"/>
<path d="M131.46 155.657L131.455 156.032C132.723 151.893 133.709 147.672 134.407 143.4L108.047 159.182C106.555 162.783 104.992 166.226 103.357 169.51L131.46 155.657Z" fill="#FFAA2A"/>
<path d="M92.3414 187.741C87.4168 194.395 82.0721 199.885 76.3618 204.146C82.325 202.505 106.448 195.032 120.441 178.187L92.3414 187.741Z" fill="#FFAA2A"/>
<path d="M73.4387 137.608C72.5118 141.662 71.8586 145.774 71.4834 149.915L71.7172 149.567L92.378 186.793C95.0989 183.043 97.5916 179.135 99.8428 175.088L73.4387 137.608Z" fill="#FFAA2A"/>
<path d="M119.415 120.664C122.351 107.286 123.361 97.8456 123.375 97.7101L123.621 97.642C118.447 93.8076 112.31 93.2201 106.019 95.385L119.415 120.664Z" fill="#FFAA2A"/>
<path d="M100.455 175.038C100.242 175.422 100.031 175.809 99.8159 176.188C97.7621 179.825 95.5111 183.348 93.073 186.741L120.906 177.277L120.876 177.652C123.315 174.666 125.364 171.383 126.975 167.884C127.601 166.506 128.193 165.119 128.749 163.722L100.455 175.038Z" fill="#FFAA2A"/>
<path d="M114.48 139.693C116.414 133.294 117.965 127.164 119.195 121.66L105.491 95.8011L105.702 95.4935C100.966 97.1913 96.1506 100.444 91.5989 105.039L114.48 139.693Z" fill="#FFAA2A"/>
<path d="M91.9434 187.386L71.4338 150.433C69.1771 175.265 74.6241 202.664 74.9782 204.407C81.4482 199.839 87.0715 193.957 91.9434 187.386Z" fill="#FFAA2A"/>
<path d="M100.211 174.388L100.237 174.377C102.935 169.456 105.366 164.394 107.517 159.212L80.0522 120.829C78.9636 122.808 77.9254 124.88 76.9378 127.046C75.5517 130.156 74.453 133.385 73.6555 136.694L100.211 174.388Z" fill="#FFAA2A"/>
<path d="M27.1221 110.497L30.4081 127.416C34.4608 131.445 38.8758 136.088 43.3102 141.203L40.0648 115.137L40.3762 115.278C35.7589 112.899 31.1736 111.231 26.8142 110.38L27.1221 110.497Z" fill="#FFAA2A"/>
<path d="M29.6957 126.71L26.5129 110.321C21.6229 109.407 17.0247 109.532 12.9974 110.861C12.7879 110.93 12.5829 111.004 12.3784 111.079C13.5913 112.051 20.6719 117.804 29.6957 126.71Z" fill="#FFAA2A"/>
<path d="M70.27 141.625L70.583 141.847C69.1469 139.892 67.6516 138.006 66.097 136.188L62.7645 167.523L62.6174 167.427C63.3666 168.673 64.0872 169.914 64.7791 171.15L70.27 141.625Z" fill="#FFAA2A"/>
<path d="M56.0408 126.129L56.3574 126.314C51.5858 122.088 46.3289 118.44 40.6963 115.446L44.0033 142.008C48.1375 146.821 51.9077 151.605 55.3138 156.36L56.0408 126.129Z" fill="#FFAA2A"/>
<path d="M1.32593 142.437C2.40514 146.839 3.92784 151.121 5.87082 155.218L52.5176 153.335C49.4798 149.27 46.4039 145.488 43.4535 142.063L1.49493 142.78L1.32593 142.437Z" fill="#FFAA2A"/>
<path d="M8.25867 159.922L8.08286 159.58L55.198 157.013C54.4775 155.998 53.7527 154.999 53.0238 154.015L6.20487 155.905L6.03149 155.563C6.71518 157.007 7.45757 158.46 8.25867 159.922Z" fill="#FFAA2A"/>
<path d="M65.4819 135.633L65.7972 135.838C62.9676 132.555 59.9188 129.465 56.6718 126.59L55.9351 157.23C58.1882 160.414 60.2689 163.573 62.1771 166.707L65.4819 135.633Z" fill="#FFAA2A"/>
<path d="M71.7305 185.74C74.7334 193.448 76.5251 200.886 77.079 207.974C78.8808 202.076 85.4612 177.767 78.676 156.97L71.7305 185.74Z" fill="#FFAA2A"/>
<path d="M19.1255 174.815C22.0652 177.766 25.2001 180.517 28.5089 183.05L28.3388 182.667L70.9466 185.201C69.2256 180.904 67.2475 176.713 65.0231 172.651L19.1255 174.815Z" fill="#FFAA2A"/>
<path d="M29.3789 127.04C19.6134 117.406 12.1537 111.503 12.0464 111.418L12.1201 111.175C6.10089 113.478 2.3179 118.329 0.784424 124.785L29.3789 127.04Z" fill="#FFAA2A"/>
<path d="M65.3091 172.109C65.5207 172.494 65.7352 172.879 65.9413 173.263C67.9241 176.939 69.7046 180.72 71.2749 184.589L78.1545 156.092L78.4559 156.317C77.2307 152.666 75.5462 149.184 73.4427 145.954C72.6105 144.689 71.7514 143.448 70.8656 142.233L65.3091 172.109Z" fill="#FFAA2A"/>
<path d="M42.8634 141.381C38.4758 136.328 34.1113 131.741 30.1051 127.759L0.8545 125.452L0.706899 125.11C-0.389679 130.006 -0.210939 135.801 1.24649 142.092L42.8634 141.381Z" fill="#FFAA2A"/>
<path d="M71.2169 185.885L28.9209 183.369C48.7573 198.562 74.8923 208.644 76.5592 209.279C76.1517 201.387 74.1774 193.504 71.2169 185.885Z" fill="#FFAA2A"/>
<path d="M64.6271 171.967L64.6323 171.939C61.9061 167.033 58.9168 162.277 55.6773 157.692L8.44629 160.266C9.54047 162.241 10.741 164.225 12.0477 166.216C13.9413 169.047 16.09 171.701 18.4672 174.144L64.6271 171.967Z" fill="#FFAA2A"/>
<path d="M31.7356 213C31.7356 213 97.9731 186.842 177.958 213H31.7356Z" fill="#3E457A"/>
<path d="M79.8925 192.931C79.9437 193.631 80.0305 194.328 80.1524 195.019C80.1524 195.019 85.8524 198.882 86.3084 194.565C86.6048 191.752 85.9345 190.481 85.4283 189.938L85.4203 189.93C85.1162 189.609 84.9447 189.186 84.9404 188.745V183.657L79.9244 185.248L80.1524 189.566C79.815 190.463 79.8104 191.804 79.8925 192.931Z" fill="#FFB9B9"/>
<path opacity="0.05" d="M79.8923 192.931C79.9435 193.631 80.0303 194.328 80.1523 195.019C80.1523 195.019 85.8522 198.882 86.3082 194.565C86.6046 191.752 85.9343 190.481 85.4281 189.938C85.2302 189.789 84.9952 189.697 84.7485 189.671C84.5018 189.646 84.2527 189.688 84.0282 189.793C83.1162 189.388 82.113 190.063 81.2831 190.936C80.7207 191.527 80.2518 192.199 79.8923 192.931Z" fill="black"/>
<path d="M84.0282 190.247C84.0282 190.247 86.5362 188.884 86.9922 195.019C87.4482 201.155 87.6762 200.473 87.6762 200.473C87.6762 200.473 89.9562 205.927 85.1682 205.245C80.3803 204.563 78.1003 204.109 78.3283 201.382C78.4657 199.738 78.8516 197.352 79.1365 195.715C79.408 194.094 80.1546 192.589 81.2822 191.389C82.1142 190.516 83.1162 189.843 84.0282 190.247Z" fill="#2F2E41"/>
<path d="M110.814 198.047L113.428 199.303C113.428 199.303 121.593 200.553 119.003 195.918C118.254 194.533 117.682 193.06 117.3 191.533C116.755 189.407 116.451 187.226 116.396 185.031L109.488 185.992C111.74 188.982 111.455 193.833 111.106 196.373C110.965 197.397 110.814 198.047 110.814 198.047Z" fill="#FFB9B9"/>
<path opacity="0.05" d="M110.813 198.047L113.427 199.303C113.427 199.303 121.593 200.553 119.003 195.918C118.254 194.533 117.681 193.06 117.3 191.533C115.714 191.838 114.507 194.114 114.507 194.114C113.227 198.54 112.077 197.434 111.106 196.373C110.965 197.397 110.813 198.047 110.813 198.047Z" fill="black"/>
<path d="M114.657 194.543C114.657 194.543 116.693 190.705 118.952 192.326C121.21 193.946 120.09 196.262 127.405 198.53C134.72 200.797 129.886 205.609 125.41 205.242C120.934 204.874 111.391 203.141 111.391 203.141C111.391 203.141 108.91 196.062 110.062 195.902C111.213 195.741 112.802 200.965 114.657 194.543Z" fill="#2F2E41"/>
<path opacity="0.3" d="M125.109 204.384C128.015 204.622 131.071 202.678 130.856 200.664C132.245 202.938 128.73 205.514 125.41 205.242C120.934 204.874 111.391 203.141 111.391 203.141C111.391 203.141 111.275 202.808 111.104 202.286C111.382 202.336 120.7 204.022 125.109 204.384Z" fill="white"/>
<path opacity="0.3" d="M78.3401 201.251C78.603 203.296 80.878 203.725 85.1682 204.336C87.35 204.647 88.0622 203.683 88.1932 202.542C88.3358 204.003 87.9195 205.637 85.1682 205.245C80.3803 204.563 78.1003 204.109 78.3283 201.382C78.3319 201.34 78.3363 201.295 78.3401 201.251Z" fill="white"/>
<path d="M67.9112 112.554L67.1544 123.869C67.1544 123.869 66.5489 135.334 71.2413 136.24C75.9337 137.145 71.2413 121.606 71.2413 121.606V111.347L67.9112 112.554Z" fill="#FBBEBE"/>
<path d="M71.847 71.3673L71.2415 72.7251C71.2415 72.7251 71.3929 82.2297 71.2415 82.984C71.0901 83.7383 69.1224 89.6221 69.1224 90.2256C69.1224 90.829 67.6087 108.329 67.3059 109.386C67.0032 110.442 65.6409 113.761 66.8518 114.213C68.0628 114.666 70.3333 112.855 71.2415 114.213C72.1497 115.571 72.9066 114.213 72.9066 113.761C72.9066 113.308 73.2093 104.709 75.0257 102.295C76.8422 99.881 78.5072 94.4498 78.8099 93.3938C79.1127 92.3377 79.5668 77.1002 79.7182 76.7985C79.8695 76.4968 79.1127 72.4234 79.1127 72.4234L71.847 71.3673Z" fill="#3F3D56"/>
<path d="M80.4748 87.3591C80.4748 87.3591 78.6584 94.4498 77.4475 95.8076C76.2365 97.1654 70.1818 107.273 71.9982 120.701C73.8146 134.128 76.9934 151.628 76.9934 151.628C76.9934 151.628 77.4475 157.814 76.842 159.473C76.2365 161.133 79.5666 187.534 79.5666 187.534C79.5666 187.534 84.2591 191.155 86.8323 186.629C86.8323 186.629 86.2268 176.823 86.8323 175.917C87.4378 175.012 86.8323 158.719 86.8323 158.719C86.8323 158.719 87.2864 118.136 89.7083 119.795C92.1302 121.455 99.5473 149.667 99.5473 149.667C99.5473 149.667 102.726 160.529 102.575 161.434C102.423 162.34 105.299 173.654 105.299 173.654C105.299 173.654 108.024 189.345 109.083 189.646C110.143 189.948 116.652 190.099 117.257 188.439L115.441 174.258C115.441 174.258 113.625 158.115 112.716 155.852C111.808 153.589 110.294 121.455 105.905 111.95C105.905 111.95 104.24 96.7128 103.029 94.4499C103.029 94.4499 102.318 91.3409 103.195 88.4386C103.195 88.4386 82.1399 88.5661 80.4748 87.3591Z" fill="#2F2E41"/>
<path d="M89.4813 59.0718C96.5036 59.0718 102.196 51.8783 102.196 43.0046C102.196 34.1309 96.5036 26.9374 89.4813 26.9374C82.459 26.9374 76.7664 34.1309 76.7664 43.0046C76.7664 51.8783 82.459 59.0718 89.4813 59.0718Z" fill="#2F2E41"/>
<path d="M115.592 61.8628L113.625 66.087L90.3138 72.876C90.3138 72.876 74.1174 77.5528 72.4523 70.0095C70.7873 62.4662 78.8098 61.7119 78.8098 61.7119C78.8098 61.7119 81.8372 59.5998 85.6214 57.4877C86.8868 56.7801 87.3061 55.635 87.3031 54.4236C87.3 54.0633 87.266 53.704 87.2017 53.3494C87.1287 52.9397 87.0275 52.5354 86.8989 52.1395C86.5785 51.1623 86.15 50.2237 85.6214 49.3409C85.6214 49.3409 95.6117 45.4184 95.4603 47.5305C95.3964 48.2913 95.4786 49.0573 95.7025 49.7875C95.9092 50.4268 96.188 51.0407 96.5336 51.6175C96.7031 51.9086 96.8923 52.2104 97.1027 52.5302C97.3752 52.9451 97.6854 53.3871 98.0336 53.8669C100.001 56.5825 106.51 56.5825 106.51 56.5825C111.657 55.979 115.592 61.8628 115.592 61.8628Z" fill="#FBBEBE"/>
<path d="M139.66 86.0013C139.66 86.0013 150.559 93.9972 152.678 93.8464C154.797 93.6955 167.209 92.9412 164.333 95.8076C161.457 98.6741 148.44 96.8637 148.44 96.8637L136.481 89.3204L139.66 86.0013Z" fill="#FBBEBE"/>
<path opacity="0.1" d="M95.7027 49.7875C94.6015 50.959 93.1934 51.8001 91.6377 52.2157C90.082 52.6313 88.4406 52.6049 86.8991 52.1395C86.5787 51.1623 86.1502 50.2237 85.6216 49.3409C85.6216 49.3409 95.6119 45.4184 95.4605 47.5305C95.3966 48.2914 95.4788 49.0574 95.7027 49.7875Z" fill="black"/>
<path d="M89.4058 51.4531C94.171 51.4531 98.0339 47.603 98.0339 42.8538C98.0339 38.1045 94.171 34.2544 89.4058 34.2544C84.6407 34.2544 80.7778 38.1045 80.7778 42.8538C80.7778 47.603 84.6407 51.4531 89.4058 51.4531Z" fill="#FBBEBE"/>
<path d="M78.6586 67.8974C78.6586 67.8974 116.198 59.4489 116.349 60.6559C116.501 61.8628 118.014 64.2766 118.014 64.2766L109.235 74.2338C109.235 74.2338 110.295 79.0615 108.175 80.1176C106.056 81.1736 105.754 89.1695 103.786 89.3204C101.818 89.4712 78.8099 89.1695 78.6586 87.9626C78.5072 86.7556 79.264 86.0013 78.6586 85.6996C78.0531 85.3979 77.1449 85.3979 77.9017 83.8892C78.6586 82.3805 78.6586 76.0442 78.6586 76.0442L71.5442 72.7251C71.5442 72.7251 70.5686 69.9139 72.343 69.4337C74.1175 68.9535 78.6586 67.8974 78.6586 67.8974Z" fill="#3F3D56"/>
<path d="M116.652 63.975H118.014C118.014 63.975 122.101 66.6906 123.161 69.1044C124.22 71.5183 128.005 74.6865 128.913 75.5917C129.821 76.4968 142.233 85.0962 142.082 86.3031C141.931 87.5101 138.449 88.717 138.298 90.0748C138.146 91.4326 139.811 92.036 138.752 92.036C137.692 92.036 131.183 88.2644 128.761 86.9066C126.34 85.5488 121.344 81.6263 120.739 80.5702C120.133 79.5142 116.046 77.7038 115.592 76.9494C115.138 76.1951 108.024 72.7252 108.024 72.7252L116.652 63.975Z" fill="#3F3D56"/>
<path d="M76.7664 38.1015C79.4415 38.1015 81.6102 35.94 81.6102 33.2737C81.6102 30.6075 79.4415 28.446 76.7664 28.446C74.0912 28.446 71.9226 30.6075 71.9226 33.2737C71.9226 35.94 74.0912 38.1015 76.7664 38.1015Z" fill="#2F2E41"/>
<path d="M98.1094 31.765C100.785 31.765 102.953 29.6036 102.953 26.9373C102.953 24.2711 100.785 22.1096 98.1094 22.1096C95.4343 22.1096 93.2656 24.2711 93.2656 26.9373C93.2656 29.6036 95.4343 31.765 98.1094 31.765Z" fill="#2F2E41"/>
<path d="M90.6165 42.7782C95.5906 42.7782 99.623 40.3128 99.623 37.2716C99.623 34.2304 95.5906 31.765 90.6165 31.765C85.6424 31.765 81.6101 34.2304 81.6101 37.2716C81.6101 40.3128 85.6424 42.7782 90.6165 42.7782Z" fill="#2F2E41"/>
<path d="M96.5335 51.6176C92.383 53.2454 89.1028 53.4385 87.2017 53.3495C87.266 53.704 87.3 54.0634 87.3031 54.4237C87.5241 54.4327 87.7617 54.4372 88.0145 54.4372C90.114 54.4372 93.2504 54.0736 97.1027 52.5303L96.5335 51.6176Z" fill="#2F2E41"/>
<path d="M280.303 96.5352H162.159C158.46 96.5352 155.462 99.5234 155.462 103.209V168.335C155.462 172.021 158.46 175.009 162.159 175.009H280.303C284.002 175.009 287 172.021 287 168.335V103.209C287 99.5234 284.002 96.5352 280.303 96.5352Z" fill="white"/>
<path opacity="0.3" d="M272.751 151.576H169.645V155.313H272.751V151.576Z" fill="#858DC3"/>
<path opacity="0.3" d="M272.817 141.766H169.712V145.503H272.817V141.766Z" fill="#858DC3"/>
<path opacity="0.3" d="M272.817 128.376H254.383V132.113H272.817V128.376Z" fill="#858DC3"/>
<path opacity="0.3" d="M272.817 118.411H205.33V122.148H272.817V118.411Z" fill="#858DC3"/>
<path opacity="0.3" d="M221.265 161.541H169.645V165.277H221.265V161.541Z" fill="#858DC3"/>
<path d="M192.468 106.266H172.888C171.134 106.266 169.712 107.684 169.712 109.432V128.947C169.712 130.696 171.134 132.113 172.888 132.113H192.468C194.222 132.113 195.644 130.696 195.644 128.947V109.432C195.644 107.684 194.222 106.266 192.468 106.266Z" fill="#FFAA2A"/>
</g>
<defs>
<clipPath id="clip0_275_30">
<rect width="287" height="213" fill="white"/>
</clipPath>
</defs>
</svg>
