<svg width="24" height="24" viewBox="0 0 24 24" fill="none" xmlns="http://www.w3.org/2000/svg">
<path d="M23 5H1C0.447715 5 0 5.44772 0 6C0 6.55228 0.447716 7 1 7H23C23.5523 7 24 6.55228 24 6C24 5.44772 23.5523 5 23 5Z" fill="white"/>
<path d="M20 11H4C3.44772 11 3 11.4477 3 12C3 12.5523 3.44772 13 4 13H20C20.5523 13 21 12.5523 21 12C21 11.4477 20.5523 11 20 11Z" fill="white"/>
<path d="M16 17H8C7.44772 17 7 17.4477 7 18C7 18.5523 7.44772 19 8 19H16C16.5523 19 17 18.5523 17 18C17 17.4477 16.5523 17 16 17Z" fill="white"/>
</svg>
