<svg width="20" height="20" viewBox="0 0 20 20" fill="none" xmlns="http://www.w3.org/2000/svg">
<path d="M0.333417 19.1953L0.09775 19.431C-0.0325833 19.5613 -0.0325833 19.772 0.09775 19.9023C0.16275 19.9673 0.248083 20 0.333417 20C0.41875 20 0.504083 19.9673 0.569083 19.9023L0.80475 19.6666C0.935084 19.5363 0.935084 19.3256 0.80475 19.1953C0.674417 19.065 0.46375 19.065 0.333417 19.1953Z" fill="white"/>
<path d="M4.69222 17.3334C4.50822 17.3334 4.35889 17.4824 4.35889 17.6667C4.35889 17.851 4.50822 18 4.69222 18H5.29922C5.48322 18 5.63256 17.851 5.63256 17.6667C5.63256 17.4824 5.48322 17.3334 5.29922 17.3334H4.69222Z" fill="white"/>
<path d="M6.51302 17.3334C6.32902 17.3334 6.17969 17.4824 6.17969 17.6667C6.17969 17.851 6.32902 18 6.51302 18H7.11969C7.30369 18 7.45302 17.851 7.45302 17.6667C7.45302 17.4824 7.30369 17.3334 7.11969 17.3334H6.51302Z" fill="white"/>
<path d="M2.87191 17.3334C2.68791 17.3334 2.53857 17.4824 2.53857 17.6667C2.53857 17.851 2.68791 18 2.87191 18H3.47857C3.66257 18 3.81191 17.851 3.81191 17.6667C3.81191 17.4824 3.66257 17.3334 3.47857 17.3334H2.87191Z" fill="white"/>
<path d="M2.09183 17.9083C1.9615 17.778 1.75083 17.778 1.6205 17.9083L1.1915 18.3373C1.06117 18.4676 1.06117 18.6783 1.1915 18.8086C1.2565 18.8736 1.34183 18.9063 1.42717 18.9063C1.5125 18.9063 1.59783 18.8736 1.66283 18.8086L2.09183 18.3796C2.22217 18.2493 2.22217 18.0383 2.09183 17.9083Z" fill="white"/>
<path d="M8.33333 17.3334C8.14933 17.3334 8 17.4824 8 17.6667C8 17.851 8.14933 18 8.33333 18H8.66667C8.85067 18 9 17.851 9 17.6667C9 17.4824 8.85067 17.3334 8.66667 17.3334H8.33333Z" fill="white"/>
<path d="M0.333262 17.9193C0.418595 17.9193 0.503928 17.8866 0.568928 17.8216L1.86093 16.5296C1.89259 16.498 1.92726 16.4696 1.97726 16.439L2.04159 16.4043C2.05326 16.3973 2.06459 16.3903 2.07693 16.385L2.20159 16.3466C2.24526 16.3383 2.28926 16.3333 2.33326 16.3333H7.33326C7.51726 16.3333 7.66659 16.1843 7.66659 16C7.66659 15.8156 7.51726 15.6666 7.33326 15.6666H2.33326C2.24793 15.6666 2.16026 15.6753 2.06959 15.693C2.03759 15.7 2.00693 15.7093 1.97659 15.7193L1.93293 15.7323C1.89559 15.7423 1.85826 15.7536 1.82426 15.7676C1.78459 15.784 1.74726 15.804 1.71026 15.8253L1.67859 15.8426C1.65026 15.857 1.62226 15.8716 1.59293 15.8913C1.51926 15.9403 1.45093 15.9966 1.38926 16.0583L0.0972617 17.3503C-0.0330716 17.4806 -0.0330716 17.6913 0.0972617 17.8216C0.162595 17.8866 0.247928 17.9193 0.333262 17.9193Z" fill="white"/>
<path d="M19.4311 16.2357C19.5164 16.2357 19.6017 16.203 19.6667 16.138L19.9024 15.9023C20.0327 15.772 20.0327 15.5613 19.9024 15.431C19.7721 15.3007 19.5614 15.3007 19.4311 15.431L19.1954 15.6667C19.0651 15.797 19.0651 16.0077 19.1954 16.138C19.2604 16.203 19.3457 16.2357 19.4311 16.2357Z" fill="white"/>
<path d="M18.1885 16.6733L17.6852 17.1766C17.5548 17.307 17.5548 17.5176 17.6852 17.648C17.7502 17.713 17.8355 17.7456 17.9208 17.7456C18.0062 17.7456 18.0915 17.713 18.1565 17.648L18.6598 17.1446C18.7902 17.0143 18.7902 16.8036 18.6598 16.6733C18.5295 16.543 18.3188 16.543 18.1885 16.6733Z" fill="white"/>
<path d="M13.7567 17.3334C13.5727 17.3334 13.4233 17.4824 13.4233 17.6667C13.4233 17.851 13.5727 18 13.7567 18H14.4683C14.6523 18 14.8017 17.851 14.8017 17.6667C14.8017 17.4824 14.6523 17.3334 14.4683 17.3334H13.7567Z" fill="white"/>
<path d="M15.8914 17.3334C15.7071 17.3334 15.5581 17.4824 15.5581 17.6667C15.5581 17.851 15.7071 18 15.8914 18H16.6031C16.7874 18 16.9364 17.851 16.9364 17.6667C16.9364 17.4824 16.7874 17.3334 16.6031 17.3334H15.8914Z" fill="white"/>
<path d="M11.9998 17.3334C11.8158 17.3334 11.6665 17.4824 11.6665 17.6667C11.6665 17.851 11.8158 18 11.9998 18H12.3332C12.5172 18 12.6665 17.851 12.6665 17.6667C12.6665 17.4824 12.5172 17.3334 12.3332 17.3334H11.9998Z" fill="white"/>
<path d="M19.4311 17.5117L18.1391 18.8037C18.1077 18.835 18.0734 18.863 18.0234 18.894L17.9607 18.928C17.9474 18.9354 17.9344 18.9437 17.9211 18.949C17.9107 18.9534 17.8997 18.9557 17.8887 18.9587L17.7961 18.9867C17.7537 18.9954 17.7104 19 17.6667 19H2.63008L2.12442 19.407C1.98108 19.5227 1.95808 19.7327 2.07375 19.8757C2.13942 19.9574 2.23608 20 2.33342 20C2.40675 20 2.48075 19.976 2.54208 19.9264L2.86508 19.6667H17.6667C17.7534 19.6667 17.8414 19.658 17.9264 19.6407C17.9604 19.634 17.9924 19.6244 18.0247 19.6137L18.0664 19.6014C18.1037 19.591 18.1407 19.58 18.1781 19.5644C18.2171 19.548 18.2537 19.5284 18.2904 19.5074L18.3234 19.4894C18.3521 19.475 18.3801 19.46 18.4057 19.4427C18.4794 19.3937 18.5484 19.3374 18.6104 19.275L19.9024 17.983C20.0327 17.8527 20.0327 17.642 19.9024 17.5117C19.7721 17.3814 19.5614 17.3817 19.4311 17.5117Z" fill="white"/>
<path d="M13 16C13 16.1844 13.1493 16.3334 13.3333 16.3334H17.3907L18.4883 15.2357C18.6187 15.1054 18.6187 14.8947 18.4883 14.7644C18.358 14.634 18.1473 14.634 18.017 14.7644L17.1147 15.6667H13.3333C13.1493 15.6667 13 15.8157 13 16Z" fill="white"/>
<path d="M10.3925 18.2523L15.5061 10.8667C17.4241 8.30933 17.1465 4.10667 14.9125 1.87267C13.7051 0.665 12.0998 0 10.3925 0C8.68515 0 7.07982 0.665 5.87248 1.87233C3.63815 4.10633 3.36048 8.30967 5.27115 10.8563L10.3925 18.2523ZM10.4515 4C11.7381 4 12.7848 5.047 12.7848 6.33333C12.7848 7.61967 11.7381 8.66667 10.4515 8.66667C9.16482 8.66667 8.11815 7.61967 8.11815 6.33333C8.11815 5.047 9.16482 4 10.4515 4Z" fill="white"/>
</svg>
